<svg version="1.1" xmlns="http://www.w3.org/2000/svg" xmlns:xlink="http://www.w3.org/1999/xlink" width="117.58776" height="117.58776" viewBox="-35.90563,651.20852,117.58776,117.58776"><defs><linearGradient x1="-12.65878" y1="753.40073" x2="61.93954" y2="668.12989" gradientUnits="userSpaceOnUse" id="color-1"><stop offset="0" stop-color="#00e056"/><stop offset="0.50421" stop-color="#d600d3"/><stop offset="1" stop-color="#0008ff"/></linearGradient></defs><g fill="url(#color-1)" fill-rule="nonzero" stroke="#000000" stroke-width="0" stroke-linecap="round" stroke-linejoin="round" stroke-miterlimit="10" stroke-dasharray="" stroke-dashoffset="0" font-family="none" font-weight="none" font-size="none" text-anchor="none" style="mix-blend-mode: normal"><g><path d="M31.73036,674.951c-8.38274,0.24558 -15.58895,2.91457 -19.59139,7.25688c-3.98977,4.32894 -5.6476,9.42697 -6.19786,19.05942l-0.4609,8.07102h-11.08832l0.19773,8.26804l0.19843,8.26804l5.44072,0.20547l5.44143,0.20477l0.18788,16.98431l0.2879,16.29791c-20.67423,-6.98099 -35.55927,-26.53442 -35.55927,-49.56444c0,-28.88534 23.4162,-52.30154 52.30154,-52.30154c28.88534,0 52.30154,23.4162 52.30154,52.30154c0,27.80646 -21.69966,50.5447 -49.08873,52.20447v-35.9314l7.20551,-0.20054l7.20621,-0.20054c0,0 2.51911,-13.40971 2.74147,-14.51938l0.4032,-2.0167h-17.55639l0.00141,-5.10156c0.0007,-6.04095 1.45236,-9.54237 4.5724,-11.03555c1.16104,-0.55589 4.72369,-1.14979 7.91621,-1.32078l5.80522,-0.31032l0.74479,-16.34175zM26.10106,762.20687c0,0 -1.06268,0.0644 0,0zM22.88825,768.79628c32.47096,0 58.79388,-26.32292 58.79388,-58.79388c0,-32.47096 -26.32292,-58.79388 -58.79388,-58.79388c-32.47096,0 -58.79388,26.32292 -58.79388,58.79388c0,32.47096 26.32292,58.79388 58.79388,58.79388z" id="CompoundPath 1"/></g></g></svg>