<svg version="1.1" xmlns="http://www.w3.org/2000/svg" xmlns:xlink="http://www.w3.org/1999/xlink" width="115.13316" height="115.13316" viewBox="-32.74862,524.50939,115.13316,115.13316"><defs><linearGradient x1="-20.90398" y1="633.66058" x2="74.93796" y2="517.47325" gradientUnits="userSpaceOnUse" id="color-1"><stop offset="0" stop-color="#00ff62"/><stop offset="0.45748" stop-color="#d600d3"/><stop offset="1" stop-color="#0008ff"/></linearGradient></defs><g fill="url(#color-1)" fill-rule="evenodd" stroke-opacity="0" stroke="#000000" stroke-width="1" stroke-linecap="butt" stroke-linejoin="miter" stroke-miterlimit="10" stroke-dasharray="" stroke-dashoffset="0" font-family="none" font-weight="none" font-size="none" text-anchor="none" style="mix-blend-mode: normal"><g><path d="M59.48669,550.82093c4.56361,0.9129 8.17939,3.3497 9.7651,6.58024c3.01553,6.14216 3.78151,38.3016 1.12971,47.4136c-1.45491,4.99901 -6.05168,8.51982 -12.28611,9.40943c-6.75852,0.96486 -60.08315,0.96486 -66.84168,0c-6.9592,-0.99354 -10.75416,-4.26439 -12.40795,-10.69772c-1.62692,-6.32492 -1.609,-37.13875 0.02419,-42.76039c1.31067,-4.51345 3.93293,-7.8085 7.28172,-9.15054c1.23183,-0.49362 11.65548,-1.10435 16.58282,-1.5084zM15.34766,568.94369l-0.72678,27.9172l25.39646,-13.52232zM24.81796,639.64255c31.79314,0 57.56658,-25.77344 57.56658,-57.56658c0,-31.79314 -25.77344,-57.56658 -57.56658,-57.56658c-31.79314,0 -57.56658,25.77344 -57.56658,57.56658c0,31.79314 25.77344,57.56658 57.56658,57.56658z" id="CompoundPath 1"/></g></g></svg>