<svg version="1.1" xmlns="http://www.w3.org/2000/svg" xmlns:xlink="http://www.w3.org/1999/xlink" width="135.70248" height="135.70248" viewBox="-100.97582,129.38445,135.70248,135.70248"><defs><linearGradient x1="-10.6019" y1="252.74807" x2="1.22635" y2="226.39599" gradientUnits="userSpaceOnUse" id="color-1"><stop offset="0" stop-color="#00e056"/><stop offset="1" stop-color="#060a8e"/></linearGradient><linearGradient x1="-37.26775" y1="237.95673" x2="-61.28298" y2="185.59398" gradientUnits="userSpaceOnUse" id="color-2"><stop offset="0" stop-color="#060a8e"/><stop offset="1" stop-color="#00e056"/></linearGradient></defs><g fill="none" fill-rule="nonzero" stroke="#000000" stroke-width="1" stroke-linecap="none" stroke-linejoin="none" stroke-miterlimit="10" stroke-dasharray="" stroke-dashoffset="0" font-family="none" font-weight="none" font-size="none" text-anchor="none" style="mix-blend-mode: normal"><path d="M-100.47582,197.23569c0,-37.19706 30.15418,-67.35124 67.35124,-67.35124c37.19706,0 67.35124,30.15418 67.35124,67.35124c0,37.19706 -30.15418,67.35124 -67.35124,67.35124c-37.19706,0 -67.35124,-30.15418 -67.35124,-67.35124z" id="Path 2" fill-opacity="0.8" fill="#fbadfa" stroke-linecap="round" stroke-linejoin="round"/><path d="M-5.32679,264.58693" id="Path 2" fill="none" stroke-linecap="round" stroke-linejoin="round"/><g fill="url(#color-1)" stroke-linecap="butt" stroke-linejoin="miter"><path d="M-19.31986,251.65087l-5.14662,-10.65369l33.28284,-74.68947h9.51333l-37.59729,85.44543l-2.38035,-0.02418" id="Path 1 3"/></g><g fill="url(#color-2)" stroke-linecap="butt" stroke-linejoin="miter"><path d="M-48.61874,251.84116l-38.05332,-85.61996h28.53999l38.43705,85.49964z" id="Path 1 1 1"/></g><path d="M-5.06215,255.71783" id="Path 2" fill="none" stroke-linecap="round" stroke-linejoin="round"/><path d="M-5.40851,245.73961" id="Path 2" fill="none" stroke-linecap="round" stroke-linejoin="round"/></g></svg>