<svg version="1.1" xmlns="http://www.w3.org/2000/svg" xmlns:xlink="http://www.w3.org/1999/xlink" width="255.77683" height="268.20579" viewBox="31.69481,481.57711,255.77683,268.20579"><g fill="#ff1366" fill-rule="nonzero" stroke-opacity="0" stroke="#000000" stroke-width="0" stroke-linecap="round" stroke-linejoin="round" stroke-miterlimit="10" stroke-dasharray="" stroke-dashoffset="0" font-family="none" font-weight="none" font-size="none" text-anchor="none" style="mix-blend-mode: normal"><path d="M170.09623,481.57711c26.74273,0 48.422,21.67927 48.422,48.422c0,2.87733 -0.25096,5.69604 -0.7322,8.43543c22.66733,-11.10192 50.38136,-2.88704 63.19021,19.29854c13.37136,23.15988 5.4362,52.77432 -17.72368,66.14568c-2.49184,1.43866 -5.05839,2.63068 -7.6714,3.58362c20.94821,14.07952 27.69093,42.18802 14.88208,64.3736c-13.37136,23.15988 -42.9858,31.09504 -66.14568,17.72368c-2.49184,-1.43866 -4.80743,-3.06536 -6.9392,-4.85182c-1.71912,25.18144 -22.69043,45.07506 -48.30814,45.07506c-26.74273,0 -48.422,-21.67927 -48.422,-48.422c0,-2.87733 0.25096,-5.69604 0.7322,-8.43543c-22.66733,11.10192 -50.38136,2.88704 -63.19021,-19.29854c-13.37136,-23.15988 -5.4362,-52.77432 17.72368,-66.14568c2.49184,-1.43866 5.05839,-2.63068 7.6714,-3.58362c-20.94821,-14.07952 -27.69093,-42.18802 -14.88208,-64.3736c13.37136,-23.15988 42.9858,-31.09504 66.14568,-17.72368c2.49184,1.43866 4.80743,3.06536 6.9392,4.85182c1.71912,-25.18144 22.69043,-45.07506 48.30814,-45.07506zM122.05957,625.20493l8.01444,13.88142l-18.39857,10.62242l-8.01444,-13.88142c-7.50476,-12.99863 -24.12606,-17.45229 -37.12469,-9.94753c-12.99863,7.50476 -17.45229,24.12606 -9.94753,37.12469c7.50476,12.99863 24.12606,17.45229 37.12469,9.94753l41.93468,-24.211l3.06464,5.30812c3.33698,-0.72715 6.80247,-1.11025 10.35743,-1.11025h16.02888v21.24484h-16.02888c-15.00953,0 -27.17716,12.16763 -27.17716,27.17716c0,15.00953 12.16763,27.17716 27.17716,27.17716c15.00953,0 27.17716,-12.16763 27.17716,-27.17716v-48.422h6.12928c1.03876,-3.25349 2.43973,-6.44623 4.21721,-9.52492l8.01444,-13.88142l18.39857,10.62242l-8.01444,13.88142c-7.50476,12.99863 -3.0511,29.61992 9.94753,37.12469c12.99863,7.50476 29.61992,3.0511 37.12469,-9.94753c7.50476,-12.99863 3.0511,-29.61992 -9.94753,-37.12469l-41.93468,-24.211l3.06464,-5.30812c-2.29822,-2.52633 -4.36274,-5.33599 -6.14022,-8.41468l-8.01444,-13.88142l18.39857,-10.62242l8.01444,13.88142c7.50476,12.99863 24.12606,17.45229 37.12469,9.94753c12.99863,-7.50476 17.45229,-24.12606 9.94753,-37.12469c-7.50476,-12.99863 -24.12606,-17.45229 -37.12469,-9.94753l-41.93468,24.211l-3.06464,-5.30812c-3.33698,0.72715 -6.80247,1.11025 -10.35743,1.11025h-16.02888v-21.24484h16.02888c15.00953,0 27.17716,-12.16763 27.17716,-27.17716c0,-15.00953 -12.16763,-27.17716 -27.17716,-27.17716c-15.00953,0 -27.17716,12.16763 -27.17716,27.17716v48.422h-6.12928c-1.03876,3.25349 -2.43973,6.44623 -4.21721,9.52492l-8.01444,13.88142l-18.39857,-10.62242l8.01444,-13.88142c7.50476,-12.99863 3.0511,-29.61992 -9.94753,-37.12469c-12.99863,-7.50476 -29.61992,-3.0511 -37.12469,9.94753c-7.50476,12.99863 -3.0511,29.61992 9.94753,37.12469l41.93468,24.211l-3.06464,5.30812c2.29822,2.52633 4.36274,5.33599 6.14022,8.41468z" id="CompoundPath 1"/></g></svg>