<svg version="1.1" xmlns="http://www.w3.org/2000/svg" xmlns:xlink="http://www.w3.org/1999/xlink" width="178.25501" height="77.61923" viewBox="228.76712,-60.54895,178.25501,77.61923"><defs><linearGradient x1="217.68397" y1="11.69121" x2="401.48581" y2="-38.37553" gradientUnits="userSpaceOnUse" id="color-1"><stop offset="0" stop-color="#0b12ff"/><stop offset="0.50318" stop-color="#00e056"/><stop offset="1" stop-color="#d600d3"/></linearGradient></defs><g fill="url(#color-1)" fill-rule="evenodd" stroke="none" stroke-width="1" stroke-linecap="butt" stroke-linejoin="miter" stroke-miterlimit="10" stroke-dasharray="" stroke-dashoffset="0" font-family="none" font-weight="none" font-size="none" text-anchor="none" style="mix-blend-mode: normal"><g><path d="M380.36488,-58.3926c0.88094,1.8003 0.92112,2.06927 0.53512,3.57909c-1.30889,5.12135 -9.17564,17.164 -20.00951,30.63116c-3.43315,4.26756 -3.30307,3.62351 -2.43729,12.06944c1.06002,10.34458 2.45704,16.12549 4.72266,19.54524c3.28263,4.95426 7.26676,2.79651 14.27372,-7.73032c2.95408,-4.43818 3.74724,-5.92015 4.62536,-8.64228c1.55142,-4.80726 4.62712,-10.43835 7.18886,-13.16012c1.6325,-1.73438 2.83211,-2.35058 4.57742,-2.35058c1.10126,0 1.56165,0.20305 2.14612,0.94615c1.06636,1.35578 0.75791,2.32555 -2.54834,8.00987c-6.19934,10.65867 -7.71587,15.44231 -5.98748,18.8878c1.70512,3.40002 6.85397,2.56843 11.3288,-1.82956c1.89231,-1.85952 5.03957,-6.31426 6.23777,-8.82911c0.71772,-1.5063 0.87142,-1.5687 1.67551,-0.68036c0.54358,0.60033 0.49423,0.81995 -0.77307,3.43703c-1.97162,4.07226 -3.72821,6.6622 -6.1856,9.11959c-7.52022,7.52022 -17.64236,7.25865 -19.63267,-0.50657l-0.42372,-1.65295l-2.05023,3.06548c-2.36432,3.53432 -5.81334,6.9213 -8.28906,8.1403c-2.37631,1.16965 -7.34996,1.21301 -9.47281,0.08214c-3.03023,-1.61382 -5.54366,-5.06953 -7.16665,-9.85388c-0.81713,-2.40874 -2.01428,-8.31832 -2.36644,-11.68026c-0.12655,-1.21195 -0.34617,-2.27514 -0.48753,-2.36256c-0.14136,-0.08742 -0.87776,0.58694 -1.63603,1.49855c-5.56552,6.69251 -22.62482,24.64685 -24.24217,25.5151c-0.9525,0.51115 -1.0445,0.20481 -0.59187,-1.9755c0.56262,-2.71085 2.05834,-4.77307 8.50022,-11.72115c11.17123,-12.04864 17.73366,-19.90023 17.43544,-20.86013c-0.32431,-1.04274 -1.21724,-12.43394 -1.42734,-18.20674c-0.4759,-13.07622 -1.23557,-18.4253 -2.82824,-19.92173c-1.84119,-1.7298 -5.83872,-1.08575 -7.91081,1.27434c-3.22975,3.6785 -4.84251,11.3281 -3.39931,16.12372l0.49423,1.64237l-1.46365,-0.00776c-2.02133,-0.01058 -4.17344,-1.07376 -5.38221,-2.65832c-0.94792,-1.24297 -1.01666,-1.54931 -1.01666,-4.533c0,-2.87195 0.11633,-3.44549 1.13334,-5.59302c2.12144,-4.47871 7.05913,-8.72583 11.82902,-10.17467c3.51635,-1.06812 8.26121,-0.8404 10.55961,0.50657c3.1247,1.83132 5.11959,5.19467 6.24588,10.53071c0.6934,3.28439 1.41711,12.26967 1.44426,17.93178l0.0141,2.98687l1.05684,-1.23381c3.77157,-4.40398 12.37507,-18.0252 18.08125,-28.62676c1.16648,-2.16692 1.80206,-3.01225 2.16163,-2.87406c0.28025,0.10716 0.93804,1.0713 1.46153,2.14189M251.11528,-59.6317c2.60016,0.80832 5.01842,2.99991 6.51379,5.90217c1.4855,2.88393 1.96739,5.62474 1.9681,11.20014c0.00141,7.71129 -1.1284,13.05261 -6.21027,29.35893c-3.45043,11.07147 -4.69269,15.93513 -4.95391,19.39366c-0.19706,2.61109 -0.13819,3.29074 0.3497,4.0349c1.81405,2.76866 8.58482,-0.96061 14.53282,-8.00423c8.4833,-10.04635 15.28579,-22.7764 18.50814,-34.63645c1.04944,-3.86357 1.15096,-4.68846 1.17176,-9.51793c0.0215,-5.07905 -0.01481,-5.35859 -0.9243,-7.08204c-0.86648,-1.64237 -2.05446,-2.88605 -4.22772,-4.42584l-0.81819,-0.57954l1.06425,-1.53556c1.45378,-2.09676 4.43077,-3.67886 6.27232,-3.33339c1.84965,0.34688 3.56147,1.99771 4.90596,4.73076c1.15308,2.34353 1.15308,2.34353 1.12206,7.63726c-0.02785,4.77483 -0.1403,5.7023 -1.14779,9.46858c-4.05499,15.15431 -15.54348,34.73022 -26.2575,44.74167c-2.97841,2.78311 -6.14012,5.02476 -8.92464,6.32766c-4.64933,2.17608 -9.84013,1.56552 -12.59222,-1.48092c-3.01119,-3.33269 -2.70556,-7.08945 1.70723,-20.97963c3.167,-9.96985 4.30351,-14.02978 5.82074,-20.79844c1.33991,-5.9762 2.05129,-15.57486 1.48268,-19.99787c-0.49528,-3.84983 -1.52252,-5.81545 -3.49661,-6.68864c-1.38574,-0.61303 -1.76223,-0.64264 -3.3482,-0.26192c-2.03966,0.48929 -4.19705,2.22825 -5.19785,4.18965c-2.1373,4.1893 -3.00167,10.02696 -1.99665,13.48373c0.31656,1.08927 0.57566,2.09535 0.57566,2.23566c0,0.1403 -0.75368,0.18225 -1.67445,0.09342c-6.16374,-0.5954 -8.38671,-6.63576 -4.96942,-13.50242c2.67665,-5.37798 8.1121,-9.45377 13.87044,-10.40028c2.00229,-0.32925 5.0512,-0.13995 6.87406,0.4269M404.36205,-40.67621c3.73808,2.27902 -0.24852,8.45509 -5.46576,8.46778c-1.11501,0.00282 -3.25866,-0.93804 -3.81916,-1.67621c-0.73359,-0.96625 -0.59963,-3.37252 0.24817,-4.45016c2.00723,-2.55151 6.69851,-3.76698 9.03675,-2.34141M304.97583,-29.29806c0.20058,0.24253 0.36203,2.10522 0.35921,4.14206c-0.00494,3.65136 0.02573,3.78955 2.27338,10.22296c2.4514,7.01612 3.3133,11.1952 2.9488,14.29699c-0.19776,1.68221 -0.14911,1.91839 0.39447,1.91557c2.09253,-0.01128 7.07922,-4.47519 9.26306,-8.29188c1.03076,-1.80136 1.19115,-1.93884 1.68749,-1.44285c0.49634,0.49634 0.40927,0.82912 -0.91196,3.4959c-2.35833,4.75932 -5.7023,7.72962 -10.22331,9.08187c-1.16119,0.34723 -1.64096,0.72795 -2.07879,1.65083c-1.1143,2.34811 -3.81034,4.45016 -7.10425,5.53908c-1.47352,0.48753 -2.69252,0.58976 -5.64025,0.47378c-4.4283,-0.17379 -6.1722,-0.84639 -8.66837,-3.34291c-2.29805,-2.2977 -3.16101,-4.71772 -3.18251,-8.92323c-0.02256,-4.38495 0.61021,-5.72133 3.42575,-7.23574c2.38618,-1.28316 3.23715,-2.04741 5.92403,-5.32087c3.2086,-3.90905 5.61346,-8.12937 5.61417,-9.85211c0.00106,-2.32202 0.94333,-4.92817 2.14858,-5.94236c1.16859,-0.98352 3.14127,-1.22781 3.77051,-0.46708M299.5002,-17.32098c-0.19988,0.24711 -1.6325,2.35269 -3.18357,4.6793c-1.55142,2.3266 -3.15572,4.5323 -3.56499,4.90173c-1.18692,1.07059 -0.89645,1.90711 1.46435,4.21715c2.2635,2.21521 5.49925,4.18049 7.62351,4.6303l1.19573,0.25311l-0.18507,-4.18084c-0.13924,-3.15396 -0.50269,-5.47774 -1.47986,-9.45941c-0.71243,-2.90332 -1.34309,-5.32616 -1.40125,-5.38433c-0.05852,-0.05852 -0.26932,0.09588 -0.46885,0.343M289.61002,-2.52447c-0.539,0.539 -0.54781,3.68873 -0.01445,5.25284c1.41324,4.14664 4.78822,6.08442 8.43994,4.84568c1.53133,-0.51961 3.03692,-1.56764 3.50366,-2.43976c0.3081,-0.57566 0.21186,-0.74346 -0.61761,-1.07729c-3.62069,-1.45554 -6.22755,-2.99004 -8.28659,-4.87635c-1.27717,-1.17071 -2.38512,-2.12814 -2.46197,-2.12814c-0.07685,0 -0.33031,0.19036 -0.56297,0.42302" id="CompoundPath 1"/></g></g></svg>